<?xml version="1.0" encoding="utf-8"?>
<!-- Generator: Adobe Illustrator 16.0.0, SVG Export Plug-In . SVG Version: 6.00 Build 0)  -->
<!DOCTYPE svg PUBLIC "-//W3C//DTD SVG 1.1//EN" "http://www.w3.org/Graphics/SVG/1.1/DTD/svg11.dtd">
<svg version="1.1" id="Layer_1" xmlns="http://www.w3.org/2000/svg" xmlns:xlink="http://www.w3.org/1999/xlink" x="0px" y="0px"
	 width="720px" height="720px" viewBox="-300 -300 720 720" enable-background="new -300 -300 720 720" xml:space="preserve">
<g>
	<polygon fill="#D1D3D4" stroke="#333333" stroke-miterlimit="10" points="-34.273,-71.825 -55.743,-59.427 -105.699,-30.584 
		-105.699,33.7 -94.965,28.726 -84.229,33.7 -84.229,-18.189 -55.743,-34.633 -34.273,-47.028 -12.597,-59.544 -12.597,-84.338 	"/>
	<polygon fill="#D1D3D4" stroke="#333333" stroke-miterlimit="10" points="-34.273,-71.705 -34.273,-73.12 -94.965,-101.256 
		-155.654,-73.12 -155.654,56.979 -155.654,200.797 -134.179,210.75 -94.965,228.923 -55.743,210.75 -34.273,200.797 
		-34.273,199.809 -55.743,187.411 -56.063,187.231 -94.965,205.261 -134.179,187.088 -134.179,70.691 -105.699,57.49 
		-94.965,52.518 -84.229,57.49 -55.743,70.691 -55.743,162.617 -34.273,175.015 -34.273,56.979 -55.743,47.025 -84.229,33.826 
		-94.965,28.85 -105.699,33.826 -134.179,47.025 -134.179,-59.41 -94.965,-77.587 -55.743,-59.41 -55.743,-59.304 	"/>
	<g>
		<polygon fill="#D1D3D4" stroke="#333333" stroke-miterlimit="10" points="-55.743,-34.633 -55.743,21.89 -34.273,34.287 
			-34.273,-47.028 		"/>
	</g>
	<g>
		<polygon fill="#D1D3D4" stroke="#333333" stroke-miterlimit="10" points="210.983,-101.375 150.293,-73.246 150.293,-71.829 
			171.763,-59.427 171.763,-59.526 210.983,-77.706 250.196,-59.526 250.196,21.84 271.675,34.235 271.675,-73.246 		"/>
	</g>
	<polygon fill="#D1D3D4" stroke="#333333" stroke-miterlimit="10" points="210.983,51.539 200.249,56.511 200.249,145.189 
		171.763,161.629 150.293,174.035 128.616,186.549 128.616,211.334 150.293,198.829 171.763,186.433 171.763,186.1 172.077,186.253 
		221.718,157.587 221.718,56.511 	"/>
	<g>
		<polygon fill="#D1D3D4" stroke="#333333" stroke-miterlimit="10" points="150.293,174.889 171.763,162.492 171.763,95.368 
			150.293,107.766 		"/>
		<polygon fill="#D1D3D4" stroke="#333333" stroke-miterlimit="10" points="250.196,46.046 221.718,32.845 210.983,27.875 
			200.249,32.845 171.763,46.046 171.763,-35.489 150.293,-47.888 150.293,55.999 150.293,82.109 171.763,69.712 200.249,56.511 
			210.983,51.539 221.718,56.511 250.196,69.712 250.196,186.1 210.983,204.273 172.077,186.253 171.763,186.433 150.293,198.829 
			150.293,199.817 171.763,209.762 210.983,227.944 250.196,209.762 271.675,199.817 271.675,55.999 		"/>
	</g>
	<polygon fill="#D1D3D4" stroke="#333333" stroke-miterlimit="10" points="58.028,228.177 8.892,199.809 -12.583,187.402 
		-34.256,174.889 -55.726,162.492 -84.212,146.053 -84.212,57.374 -94.946,52.388 -105.687,57.374 -105.687,158.449 
		-56.045,187.105 -55.726,186.962 -55.726,187.285 -34.256,199.683 -12.583,212.196 8.892,224.593 58.028,252.962 107.164,224.593 
		107.164,199.809 	"/>
	<polygon fill="#D1D3D4" stroke="#333333" stroke-miterlimit="10" points="171.763,-59.427 150.293,-71.829 128.616,-84.338 
		107.146,-96.74 58.009,-125.104 8.878,-96.735 8.878,-71.943 58.009,-100.308 107.146,-71.943 128.616,-59.544 150.293,-47.028 
		171.763,-34.633 200.249,-18.189 200.249,33.7 210.983,28.726 221.718,33.7 221.718,-30.584 	"/>
	<polygon fill="#D1D3D4" stroke="#333333" stroke-miterlimit="10" points="58.009,-184.212 -12.597,-147.774 -12.597,-84.338 
		-12.597,-59.544 -12.597,187.402 8.878,199.809 8.878,-71.943 8.878,-96.735 8.878,-134.689 58.009,-160.044 107.146,-134.689 
		107.146,-96.74 128.616,-84.338 128.616,-147.774 	"/>
	<polygon fill="#D1D3D4" stroke="#333333" stroke-miterlimit="10" points="107.146,-71.943 107.146,35.279 33.029,63.154 
		107.146,91.803 107.146,199.809 107.146,224.593 107.146,264.687 58.009,288.097 8.878,264.687 8.878,224.593 -12.597,212.196 
		-12.597,278.241 58.009,311.884 128.616,278.241 128.616,212.196 128.616,187.402 128.616,100.103 128.616,77.079 107.146,68.778 
		93.303,63.424 107.146,58.216 128.616,50.144 128.616,27.203 128.616,-59.544 	"/>
</g>
</svg>
