<?xml version="1.0" encoding="utf-8"?>
<!-- Generator: Adobe Illustrator 16.0.0, SVG Export Plug-In . SVG Version: 6.00 Build 0)  -->
<!DOCTYPE svg PUBLIC "-//W3C//DTD SVG 1.1//EN" "http://www.w3.org/Graphics/SVG/1.1/DTD/svg11.dtd">
<svg version="1.1" id="Layer_1" xmlns="http://www.w3.org/2000/svg" xmlns:xlink="http://www.w3.org/1999/xlink" x="0px" y="0px"
	 width="120px" height="120px" viewBox="0 0 120 120" enable-background="new 0 0 120 120" xml:space="preserve">
<g>
	<polygon fill="#D1D3D4" stroke="#333333" stroke-miterlimit="10" points="40.116,31.837 35.448,34.532 24.587,40.803 24.587,54.78 
		26.921,53.698 29.255,54.78 29.255,43.498 35.448,39.923 40.116,37.228 44.829,34.507 44.829,29.116 	"/>
	<polygon fill="#D1D3D4" stroke="#333333" stroke-miterlimit="10" points="40.116,31.863 40.116,31.555 26.921,25.438 
		13.726,31.555 13.726,59.841 13.726,91.109 18.395,93.273 26.921,97.225 35.448,93.273 40.116,91.109 40.116,90.895 35.448,88.199 
		35.379,88.16 26.921,92.08 18.395,88.129 18.395,62.822 24.587,59.952 26.921,58.871 29.255,59.952 35.448,62.822 35.448,82.809 
		40.116,85.504 40.116,59.841 35.448,57.677 29.255,54.807 26.921,53.725 24.587,54.807 18.395,57.677 18.395,34.536 26.921,30.584 
		35.448,34.536 35.448,34.559 	"/>
	<g>
		<polygon fill="#D1D3D4" stroke="#333333" stroke-miterlimit="10" points="35.448,39.923 35.448,52.212 40.116,54.907 
			40.116,37.228 		"/>
	</g>
	<g>
		<polygon fill="#D1D3D4" stroke="#333333" stroke-miterlimit="10" points="93.439,25.412 80.244,31.528 80.244,31.836 
			84.912,34.532 84.912,34.511 93.439,30.558 101.965,34.511 101.965,52.201 106.635,54.896 106.635,31.528 		"/>
	</g>
	<polygon fill="#D1D3D4" stroke="#333333" stroke-miterlimit="10" points="93.439,58.658 91.105,59.739 91.105,79.02 84.912,82.594 
		80.244,85.291 75.531,88.012 75.531,93.4 80.244,90.682 84.912,87.986 84.912,87.914 84.98,87.947 95.773,81.715 95.773,59.739 	
		"/>
	<g>
		<polygon fill="#D1D3D4" stroke="#333333" stroke-miterlimit="10" points="80.244,85.477 84.912,82.781 84.912,68.188 
			80.244,70.883 		"/>
		<polygon fill="#D1D3D4" stroke="#333333" stroke-miterlimit="10" points="101.965,57.464 95.773,54.594 93.439,53.513 
			91.105,54.594 84.912,57.464 84.912,39.737 80.244,37.041 80.244,59.628 80.244,65.305 84.912,62.609 91.105,59.739 
			93.439,58.658 95.773,59.739 101.965,62.609 101.965,87.914 93.439,91.865 84.98,87.947 84.912,87.986 80.244,90.682 
			80.244,90.896 84.912,93.059 93.439,97.012 101.965,93.059 106.635,90.896 106.635,59.628 		"/>
	</g>
	<polygon fill="#D1D3D4" stroke="#333333" stroke-miterlimit="10" points="60.184,97.063 49.501,90.895 44.832,88.197 40.12,85.477 
		35.452,82.781 29.259,79.207 29.259,59.927 26.925,58.843 24.59,59.927 24.59,81.902 35.383,88.133 35.452,88.102 35.452,88.172 
		40.12,90.867 44.832,93.588 49.501,96.283 60.184,102.451 70.867,96.283 70.867,90.895 	"/>
	<polygon fill="#D1D3D4" stroke="#333333" stroke-miterlimit="10" points="84.912,34.532 80.244,31.836 75.531,29.116 70.863,26.42 
		60.18,20.253 49.498,26.421 49.498,31.811 60.18,25.644 70.863,31.811 75.531,34.507 80.244,37.228 84.912,39.923 91.105,43.498 
		91.105,54.78 93.439,53.698 95.773,54.78 95.773,40.803 	"/>
	<polygon fill="#D1D3D4" stroke="#333333" stroke-miterlimit="10" points="60.18,7.402 44.829,15.324 44.829,29.116 44.829,34.507 
		44.829,88.197 49.498,90.895 49.498,31.811 49.498,26.421 49.498,18.169 60.18,12.656 70.863,18.169 70.863,26.42 75.531,29.116 
		75.531,15.324 	"/>
	<polygon fill="#D1D3D4" stroke="#333333" stroke-miterlimit="10" points="70.863,31.811 70.863,55.123 54.749,61.184 
		70.863,67.412 70.863,90.895 70.863,96.283 70.863,105 60.18,110.09 49.498,105 49.498,96.283 44.829,93.588 44.829,107.947 
		60.18,115.262 75.531,107.947 75.531,93.588 75.531,88.197 75.531,69.217 75.531,64.211 70.863,62.406 67.854,61.242 70.863,60.11 
		75.531,58.355 75.531,53.367 75.531,34.507 	"/>
</g>
</svg>
